GRF
version=1
nRows=12
nColumns=19
inDegrees=no
endheader
time	left_ground_force_vx	left_ground_force_vy	left_ground_force_vz	left_ground_force_px	left_ground_force_py	left_ground_force_pz	left_ground_torque_x	left_ground_torque_y	left_ground_torque_z	right_ground_force_vx	right_ground_force_vy	right_ground_force_vz	right_ground_force_px	right_ground_force_py	right_ground_force_pz	right_ground_torque_x	right_ground_torque_y	right_ground_torque_z
      0.91000000	     -0.00000003	      0.00000060	     -0.00000000	     -0.40085654	      0.00000000	     -0.39997178	      0.00000000	     -0.00000000	     -0.00000000	     -0.00000000	      0.00000000	     -0.00000000	      0.26185129	      0.00000000	     -0.20546527	      0.00000000	      0.00000000	      0.00000000
      0.92000000	     -0.00000021	      0.00000384	     -0.00000002	     -0.40085654	      0.00000000	     -0.39997178	      0.00000000	     -0.00000003	     -0.00000000	     -0.00000000	      0.00000000	     -0.00000000	      0.26185129	      0.00000000	     -0.20546527	      0.00000000	      0.00000000	      0.00000000
      0.93000000	     -0.00000119	      0.00002229	     -0.00000016	     -0.40085653	      0.00000000	     -0.39997178	      0.00000000	     -0.00000016	     -0.00000000	     -0.00000000	      0.00000000	     -0.00000000	      0.26185129	      0.00000000	     -0.20546527	      0.00000000	      0.00000000	      0.00000000
      0.94000000	     -0.00000601	      0.00011731	     -0.00000107	     -0.40085652	      0.00000000	     -0.39997177	      0.00000000	     -0.00000084	     -0.00000000	     -0.00000000	      0.00000000	     -0.00000000	      0.26185129	      0.00000000	     -0.20546527	      0.00000000	      0.00000000	      0.00000000
      0.95000000	     -0.00002767	      0.00056051	     -0.00000614	     -0.40085647	      0.00000000	     -0.39997173	      0.00000000	     -0.00000395	     -0.00000000	     -0.00000000	      0.00000000	     -0.00000000	      0.26185129	      0.00000000	     -0.20546527	      0.00000000	      0.00000000	      0.00000000
      0.96000000	     -0.00011550	      0.00243230	     -0.00003135	     -0.40085625	      0.00000000	     -0.39997154	      0.00000000	     -0.00001691	     -0.00000000	     -0.00000000	      0.00000000	     -0.00000000	      0.26185129	      0.00000000	     -0.20546527	      0.00000000	      0.00000000	      0.00000000
      0.97000000	     -0.00043784	      0.00958970	     -0.00014311	     -0.40085540	      0.00000000	     -0.39997083	      0.00000000	     -0.00006569	     -0.00000000	     -0.00000000	      0.00000000	     -0.00000000	      0.26185129	      0.00000000	     -0.20546527	      0.00000000	      0.00000000	      0.00000000
      0.98000000	     -0.00150893	      0.03436820	     -0.00058604	     -0.40085246	      0.00000000	     -0.39996834	      0.00000000	     -0.00023199	     -0.00000000	     -0.00000000	      0.00000000	     -0.00000000	      0.26185129	      0.00000000	     -0.20546527	      0.00000000	      0.00000000	      0.00000000
      0.99000000	     -0.00473461	      0.11202777	     -0.00215883	     -0.40084322	      0.00000000	     -0.39996046	      0.00000000	     -0.00074511	     -0.00000000	     -0.00000000	      0.00000000	     -0.00000000	      0.26185129	      0.00000000	     -0.20546527	      0.00000000	      0.00000000	      0.00000000
      1.00000000	     -0.01355263	      0.33236633	     -0.00716978	     -0.40081695	      0.00000000	     -0.39993795	      0.00000000	     -0.00217789	     -0.00000000	     -0.00000000	      0.00000000	     -0.00000000	      0.26185129	      0.00000000	     -0.20546527	      0.00000000	      0.00000000	      0.00000000
      1.01000000	     -0.03548620	      0.89826296	     -0.02150800	     -0.40074918	      0.00000000	     -0.39987967	      0.00000000	     -0.00579792	     -0.00000000	     -0.00000000	      0.00000000	     -0.00000000	      0.26185129	      0.00000000	     -0.20546527	      0.00000000	      0.00000000	      0.00000000
      1.02000000	     -0.08529966	      2.21383449	     -0.05837511	     -0.40059067	      0.00000000	     -0.39974307	      0.00000000	     -0.01407197	     -0.00000000	     -0.00000000	      0.00000000	     -0.00000000	      0.26185129	      0.00000000	     -0.20546527	      0.00000000	      0.00000000	      0.00000000
